<svg id="Layer_1" data-name="Layer 1" xmlns="http://www.w3.org/2000/svg" viewBox="0 0 1003.15 649.26"><defs><style>.cls-1{isolation:isolate;}</style></defs><title>logo</title><g class="cls-1"><path d="M5.25,149.52,81.32,53.29H7.17V26.94H120V51.88L42.9,149.52h77.26v26.25H5.25Z" transform="translate(-5.25 -26.94)"/><path d="M131.57,149.52l76.07-96.23H133.48V26.94H246.27V51.88l-77.06,97.64h77.26v26.25H131.57Z" transform="translate(-5.25 -26.94)"/><path d="M310.94,26.94h35.19l52.66,148.83H365.06l-9.82-30.59H300.43l-10.09,30.59H257.81Zm-2.05,92.59H347L328.21,61Z" transform="translate(-5.25 -26.94)"/><path d="M516.45,26.94H561.2V175.77h-29V75.1q0-4.34.1-12.17c.07-5.21.1-9.24.1-12.06l-28.2,124.9H474L446,50.87c0,2.82,0,6.85.1,12.06s.1,9.28.1,12.17V175.77h-29V26.94h45.25l27.09,117Z" transform="translate(-5.25 -26.94)"/><path d="M685.35,30.77a36.92,36.92,0,0,1,13.94,10.4,46.63,46.63,0,0,1,7.48,12.52,41.73,41.73,0,0,1,2.76,15.66,44.72,44.72,0,0,1-5.35,20.85q-5.35,10.24-17.67,14.49,10.29,4.14,14.59,11.76t4.29,23.27v10q0,10.2.82,13.83A12.38,12.38,0,0,0,712,172v3.74H677.62c-.94-3.3-1.62-6-2-8A72.27,72.27,0,0,1,674.29,155l-.2-13.83q-.2-14.25-4.92-19t-17.72-4.74H621.08v58.36h-30.4V26.94h71.19Q677.13,27.24,685.35,30.77Zm-64.27,22v40h33.46q10,0,15-2.42,8.84-4.25,8.83-16.76,0-13.53-8.54-18.18-4.78-2.62-14.38-2.62Z" transform="translate(-5.25 -26.94)"/><path d="M767.69,175.77h-30.9V26.94h30.9Z" transform="translate(-5.25 -26.94)"/></g><g class="cls-1"><path d="M15.25,275.08h32.6l59.08,103.77V275.08h29V423.91h-31.1L44.23,318.31v105.6h-29Z" transform="translate(-5.25 -26.94)"/><path d="M207.65,275.08h35.19l52.65,148.83H261.77L252,393.31H197.14l-10.09,30.6H154.52Zm-2.05,92.59h38.12l-18.81-58.56Z" transform="translate(-5.25 -26.94)"/></g><g class="cls-1"><path d="M38.17,626.12q1.44,10.2,5.67,15.24,7.72,9.2,26.49,9.19,11.24,0,18.25-2.42,13.31-4.65,13.3-17.27a12.73,12.73,0,0,0-6.51-11.41q-6.53-3.93-20.67-7L58.59,609Q34.83,603.7,26,597.54q-15-10.29-15-32.21,0-20,14.72-33.22t43.24-13.22q23.82,0,40.63,12.47t17.63,36.19H97.24q-.84-13.42-12-19.08-7.45-3.74-18.53-3.74-12.31,0-19.67,4.85a15.33,15.33,0,0,0-7.35,13.53q0,8,7.25,11.92,4.65,2.63,19.77,6.15l26.12,6.17q17.18,4,25.74,10.8,13.31,10.5,13.31,30.39,0,20.4-15.77,33.88T71.55,675.9q-29.38,0-46.23-13.28T8.48,626.12Z" transform="translate(-5.25 -26.94)"/><path d="M263.74,549.58H185v31.6h72.3V607H185V645.3h82.39v26.76H154.59V523.23H263.74Z" transform="translate(-5.25 -26.94)"/><path d="M305.82,538.78q18-18.37,45.75-18.38,37.17,0,54.35,24.64,9.48,13.83,10.18,27.77H385q-3-10.71-7.61-16.16Q369.08,547,352.76,547q-16.62,0-26.22,13.68T317,599.36q0,25,10.12,37.51t25.73,12.47q16,0,24.4-10.7,4.64-5.76,7.7-17.27h30.9q-4,24.35-20.43,39.58t-42.1,15.25q-31.77,0-49.95-20.6t-18.18-56.74Q285.14,559.88,305.82,538.78Z" transform="translate(-5.25 -26.94)"/><path d="M440.94,523.23h31.61v91.41q0,15.33,3.62,22.39,5.63,12.51,24.55,12.51T525.17,637q3.62-7.06,3.62-22.39V523.23h31.6v91.48q0,23.73-7.36,36.95-13.71,24.24-52.31,24.24T448.3,651.66q-7.37-13.21-7.36-36.95Z" transform="translate(-5.25 -26.94)"/><path d="M589.78,523.23h32.6L681.46,627V523.23h29V672.06h-31.1l-60.59-105.6v105.6h-29Z" transform="translate(-5.25 -26.94)"/><path d="M826.83,526.46a49.18,49.18,0,0,1,25.36,18.88,66.3,66.3,0,0,1,10.61,24A115.08,115.08,0,0,1,865.63,594q0,29.68-11.92,50.28-16.17,27.78-49.92,27.77H739.62V523.23h64.17Q817.64,523.42,826.83,526.46Zm-57,22.62v97.13h28.72q22.05,0,30.74-21.71Q834,612.59,834,596.13q0-22.73-7.13-34.89t-28.37-12.16Z" transform="translate(-5.25 -26.94)"/><path d="M889,523.23h31.6v91.41q0,15.33,3.62,22.39,5.64,12.51,24.55,12.51T973.18,637q3.62-7.06,3.62-22.39V523.23h31.6v91.48q0,23.73-7.35,36.95-13.71,24.24-52.32,24.24t-52.42-24.24Q889,638.45,889,614.71Z" transform="translate(-5.25 -26.94)"/></g></svg>